<?xml version="1.0" standalone="no"?><!DOCTYPE svg PUBLIC "-//W3C//DTD SVG 1.1//EN" "http://www.w3.org/Graphics/SVG/1.1/DTD/svg11.dtd"><svg class="icon" width="200px" height="200.00px" viewBox="0 0 1024 1024" version="1.1" xmlns="http://www.w3.org/2000/svg"><path fill="#333333" d="M554.666667 810.666667v42.666666h-85.333334v-42.666666c-93.866667 0-170.666667-76.8-170.666666-170.666667h85.333333c0 46.933333 38.4 85.333333 85.333333 85.333333v-170.666666c-93.866667 0-170.666667-76.8-170.666666-170.666667s76.8-170.666667 170.666666-170.666667V170.666667h85.333334v42.666666c93.866667 0 170.666667 76.8 170.666666 170.666667h-85.333333c0-46.933333-38.4-85.333333-85.333333-85.333333v170.666666h17.066666c29.866667 0 68.266667 17.066667 98.133334 42.666667 34.133333 29.866667 59.733333 76.8 59.733333 128-4.266667 93.866667-81.066667 170.666667-174.933333 170.666667z m0-85.333334c46.933333 0 85.333333-38.4 85.333333-85.333333s-38.4-85.333333-85.333333-85.333333v170.666666zM469.333333 298.666667c-46.933333 0-85.333333 38.4-85.333333 85.333333s38.4 85.333333 85.333333 85.333333V298.666667z"  /></svg>